<?xml version="1.0" encoding="UTF-8" standalone="no"?>
<!-- Uploaded to: SVG Repo, www.svgrepo.com, Generator: SVG Repo Mixer Tools -->

<svg
   width="800px"
   height="800px"
   viewBox="0 0 20 20"
   version="1.1"
   id="svg3"
   sodipodi:docname="time.svg"
   inkscape:version="1.4.2 (f4327f4, 2025-05-13)"
   xmlns:inkscape="http://www.inkscape.org/namespaces/inkscape"
   xmlns:sodipodi="http://sodipodi.sourceforge.net/DTD/sodipodi-0.dtd"
   xmlns="http://www.w3.org/2000/svg"
   xmlns:svg="http://www.w3.org/2000/svg"
   xmlns:rdf="http://www.w3.org/1999/02/22-rdf-syntax-ns#"
   xmlns:cc="http://creativecommons.org/ns#"
   xmlns:dc="http://purl.org/dc/elements/1.1/">
  <defs
     id="defs3" />
  <sodipodi:namedview
     id="namedview3"
     pagecolor="#505050"
     bordercolor="#eeeeee"
     borderopacity="1"
     inkscape:showpageshadow="0"
     inkscape:pageopacity="0"
     inkscape:pagecheckerboard="0"
     inkscape:deskcolor="#505050"
     inkscape:zoom="0.518125"
     inkscape:cx="526.89988"
     inkscape:cy="398.55247"
     inkscape:window-width="1920"
     inkscape:window-height="1009"
     inkscape:window-x="2872"
     inkscape:window-y="-8"
     inkscape:window-maximized="1"
     inkscape:current-layer="svg3" />
  <title
     id="title1">time / 32 - time, calendar, search, date, event, planner, task icon</title>
  <rect
     style="font-variation-settings:'wght' 500;fill:#f0f0f0;stroke-width:0.0075;stroke-linecap:round;stroke-linejoin:round;paint-order:fill markers stroke"
     id="rect3"
     width="20"
     height="20"
     x="0"
     y="0"
     rx="4.901432"
     ry="4.901432" />
  <g
     id="Free-Icons"
     stroke="none"
     stroke-width="1"
     fill="none"
     fill-rule="evenodd"
     stroke-linecap="round"
     stroke-linejoin="round"
     transform="matrix(0.72705166,0,0,0.72705166,2.7294834,2.7294834)">
    <g
       transform="translate(-673,-748)"
       id="Group"
       stroke="#000000"
       stroke-width="2">
      <g
         transform="translate(671,746)"
         id="Shape">
        <line
           x1="17.994635"
           y1="18.244635"
           x2="20.456621"
           y2="20.706621"
           id="line1" />
        <circle
           cx="15.532648"
           cy="15.782648"
           r="3.2826483"
           id="circle1" />
        <line
           x1="17"
           y1="3"
           x2="17"
           y2="5"
           id="line2" />
        <line
           x1="7"
           y1="3"
           x2="7"
           y2="5"
           id="line3" />
        <path
           d="M 9.0306454,21 C 8.4255013,21 6.517785,21 5.3074967,21 4.5051298,21 4.2141722,20.921831 3.9208389,20.775046 3.6275055,20.628261 3.3972958,20.41286 3.2404194,20.138396 3.083543,19.863932 3,19.591691 3,18.840939 V 7.1590612 C 3,6.4083086 3.083543,6.1360676 3.2404194,5.8616036 3.3972958,5.5871397 3.6275055,5.3717388 3.9208389,5.2249539 4.2141722,5.0781689 4.5051298,5 5.3074967,5 H 18.692503 c 0.802367,0 1.093325,0.078169 1.386658,0.2249539 0.293333,0.1467849 0.523543,0.3621858 0.68042,0.6366497 C 20.916457,6.1360676 21,8.2467189 21,8.9974715"
           id="path3" />
      </g>
    </g>
  </g>
  <metadata
     id="metadata3">
    <rdf:RDF>
      <cc:Work
         rdf:about="">
        <dc:title>time / 32 - time, calendar, search, date, event, planner, task icon</dc:title>
      </cc:Work>
    </rdf:RDF>
  </metadata>
</svg>
